<?xml version="1.0" encoding="utf-8"?>
<!-- Generator: Adobe Illustrator 27.5.0, SVG Export Plug-In . SVG Version: 6.00 Build 0)  -->
<svg version="1.1" id="Layer_1" xmlns="http://www.w3.org/2000/svg" xmlns:xlink="http://www.w3.org/1999/xlink" x="0px" y="0px"
	 viewBox="0 0 493 385" style="enable-background:new 0 0 493 385;" xml:space="preserve">
<style type="text/css">
	.st0{fill:#FFFFFF;}
	.st1{fill:#0073FF;}
	.st2{opacity:0.5;fill:#FFFFFF;enable-background:new    ;}
	.st3{fill:#1A1A1A;}
</style>
<path class="st0" d="M57.6,43.1v-3.5l5.8-8.9c0.4-0.7,0.9-1.3,1.2-1.9c0.4-0.6,0.7-1.2,1-1.9c0.3-0.6,0.4-1.3,0.4-2
	c0-0.7-0.1-1.2-0.4-1.6s-0.7-0.5-1.1-0.5c-0.5,0-1,0.2-1.3,0.5c-0.3,0.3-0.5,0.7-0.6,1.2c-0.1,0.5-0.2,1.1-0.2,1.7v1.2h-4.9v-1.3
	c0-1.4,0.2-2.7,0.7-3.8c0.5-1.1,1.2-2,2.2-2.7c1-0.7,2.3-1,3.9-1c2.2,0,3.8,0.6,4.9,1.7c1.1,1.1,1.7,2.7,1.7,4.7
	c0,1-0.2,1.9-0.5,2.7c-0.3,0.8-0.7,1.7-1.2,2.5c-0.5,0.8-1,1.6-1.6,2.5l-4.4,6.6h7.1v3.9H57.6z M72.5,43.1v-3.5l5.8-8.9
	c0.4-0.7,0.8-1.3,1.2-1.9c0.4-0.6,0.7-1.2,1-1.9c0.3-0.6,0.4-1.3,0.4-2c0-0.7-0.1-1.2-0.4-1.6c-0.3-0.3-0.7-0.5-1.1-0.5
	c-0.5,0-1,0.2-1.3,0.5c-0.3,0.3-0.5,0.7-0.6,1.2c-0.1,0.5-0.2,1.1-0.2,1.7v1.2h-4.9v-1.3c0-1.4,0.2-2.7,0.7-3.8
	c0.5-1.1,1.2-2,2.2-2.7c1-0.7,2.3-1,3.9-1c2.2,0,3.8,0.6,4.9,1.7c1.1,1.1,1.7,2.7,1.7,4.7c0,1-0.2,1.9-0.5,2.7
	c-0.3,0.8-0.7,1.7-1.2,2.5c-0.5,0.8-1,1.6-1.6,2.5L78,39.1h7.1v3.9H72.5z M93.7,43.5c-1.8,0-3.1-0.3-4.1-0.9
	c-0.9-0.6-1.5-1.5-1.8-2.7c-0.3-1.1-0.5-2.5-0.5-4h4.8c0,0.9,0,1.7,0.1,2.2c0.1,0.6,0.3,1,0.5,1.3c0.3,0.2,0.7,0.3,1.2,0.3
	c0.5,0,0.9-0.2,1.1-0.6c0.2-0.4,0.3-1,0.4-1.7c0.1-0.8,0.1-1.7,0.1-2.7c0-0.8-0.1-1.5-0.2-2.1c-0.1-0.6-0.3-1.1-0.5-1.5
	c-0.3-0.4-0.7-0.6-1.2-0.6c-0.5,0-0.9,0.2-1.2,0.5c-0.3,0.4-0.5,0.9-0.7,1.7h-4.3l0.5-14h11.3V23h-7.3l-0.3,5
	c0.2-0.3,0.6-0.5,1.1-0.7c0.6-0.2,1.2-0.4,1.8-0.4c1.2-0.1,2.3,0.1,3.1,0.7c0.9,0.6,1.5,1.5,1.9,2.7c0.4,1.2,0.7,2.7,0.7,4.4
	c0,1.3-0.1,2.5-0.2,3.6c-0.2,1.1-0.5,2-0.9,2.8c-0.5,0.8-1.1,1.4-2,1.8C96.3,43.3,95.1,43.5,93.7,43.5z M102.7,47.3l-0.3-1.6
	c0.5-0.1,1-0.4,1.4-0.8c0.5-0.4,0.7-1,0.7-1.8H102v-4.6h4.7v4c0,1.5-0.3,2.6-1,3.5S104,47.2,102.7,47.3z M115.5,43.4
	c-1.6,0-2.9-0.3-3.9-1c-1-0.7-1.7-1.7-2.2-2.8c-0.5-1.2-0.7-2.6-0.7-4.1v-8.8c0-1.6,0.2-3,0.5-4.2c0.4-1.2,1.1-2.2,2-2.9
	c1-0.7,2.3-1.1,4.1-1.1c1.6,0,2.8,0.2,3.7,0.7s1.5,1.2,1.9,2.1s0.6,2.1,0.6,3.4c0,0.1,0,0.2,0,0.2c0,0.1,0,0.1,0,0.2H117
	c0-1-0.1-1.7-0.2-2.2c-0.1-0.5-0.6-0.7-1.2-0.7c-0.5,0-0.8,0.1-1,0.4c-0.2,0.3-0.4,0.8-0.5,1.5c-0.1,0.7-0.1,1.7-0.1,2.9v2.2
	c0.2-0.4,0.6-0.7,1.2-1c0.5-0.2,1.2-0.4,1.8-0.4c1.3,0,2.3,0.2,3.1,0.9c0.8,0.6,1.3,1.5,1.7,2.5c0.3,1.1,0.5,2.2,0.5,3.6
	c0,1.7-0.2,3.2-0.6,4.5c-0.4,1.3-1.1,2.3-2,3C118.6,43.1,117.2,43.4,115.5,43.4z M115.6,39.7c0.5,0,0.8-0.1,1-0.4
	c0.2-0.3,0.4-0.8,0.4-1.4c0.1-0.6,0.1-1.4,0.1-2.3c0-0.8,0-1.5-0.1-2.1c0-0.6-0.2-1-0.4-1.4c-0.2-0.3-0.6-0.5-1.1-0.5
	c-0.2,0-0.5,0-0.7,0.1c-0.2,0.1-0.4,0.2-0.6,0.4c-0.2,0.1-0.3,0.3-0.4,0.4v4c0,0.5,0,1,0.1,1.5c0.1,0.5,0.3,0.9,0.5,1.2
	C114.8,39.6,115.1,39.7,115.6,39.7z M126.5,43.1V23.7c-0.2,0.1-0.5,0.2-0.8,0.4c-0.3,0.1-0.6,0.2-0.9,0.4c-0.3,0.1-0.6,0.2-0.9,0.4
	c-0.3,0.1-0.5,0.2-0.8,0.4v-3.7c0.2-0.1,0.5-0.3,0.9-0.5c0.4-0.2,0.8-0.5,1.3-0.7c0.5-0.3,0.9-0.5,1.3-0.8c0.4-0.3,0.7-0.5,0.9-0.7
	h3.9v24.3H126.5z M135.6,43.1l5.3-20.5h-6.6v-3.8h11.5v3.4l-5.3,20.9H135.6z"/>
<rect x="38.3" y="63.7" class="st0" width="126.5" height="225.8"/>
<path class="st1" d="M73.7,271.8v-3.5l5.8-8.9c0.4-0.7,0.8-1.3,1.2-1.9c0.4-0.6,0.7-1.2,1-1.9c0.3-0.6,0.4-1.3,0.4-2
	c0-0.7-0.1-1.2-0.4-1.6c-0.3-0.3-0.7-0.5-1.1-0.5c-0.5,0-1,0.1-1.3,0.5c-0.3,0.3-0.5,0.7-0.6,1.2c-0.1,0.5-0.2,1.1-0.2,1.7v1.2h-4.9
	v-1.3c0-1.4,0.2-2.7,0.7-3.8c0.5-1.1,1.2-2,2.2-2.7c1-0.7,2.3-1,3.9-1c2.2,0,3.8,0.6,4.9,1.7c1.1,1.1,1.7,2.7,1.7,4.7
	c0,1-0.2,1.9-0.5,2.7c-0.3,0.8-0.7,1.7-1.2,2.5c-0.5,0.8-1,1.6-1.6,2.5l-4.4,6.6h7.1v3.9H73.7z M95.8,272.3c-1.5,0-2.7-0.3-3.7-0.9
	c-1-0.6-1.7-1.4-2.2-2.5s-0.8-2.2-0.8-3.6v-11c0-1.4,0.2-2.7,0.7-3.7c0.5-1.1,1.2-1.9,2.2-2.5c1-0.6,2.2-0.9,3.8-0.9
	c1.5,0,2.8,0.3,3.7,0.9c1,0.6,1.7,1.4,2.2,2.5c0.5,1.1,0.7,2.3,0.7,3.7v11c0,1.4-0.3,2.6-0.8,3.6c-0.5,1-1.2,1.9-2.2,2.5
	C98.5,272,97.3,272.3,95.8,272.3z M95.8,267.8c0.5,0,0.8-0.2,1-0.5c0.2-0.3,0.4-0.7,0.4-1.1c0.1-0.4,0.1-0.8,0.1-1.1v-10.8
	c0-0.3,0-0.7-0.1-1.1c0-0.4-0.2-0.8-0.4-1.1c-0.2-0.3-0.5-0.5-1-0.5s-0.9,0.2-1.1,0.5c-0.2,0.3-0.3,0.7-0.4,1.1
	c0,0.4-0.1,0.8-0.1,1.1v10.8c0,0.3,0,0.7,0.1,1.1c0.1,0.4,0.2,0.8,0.4,1.1C95,267.7,95.4,267.8,95.8,267.8z M107.7,271.8v-19.4
	c-0.2,0.1-0.5,0.2-0.8,0.4s-0.6,0.2-0.9,0.4c-0.3,0.1-0.6,0.2-0.9,0.4c-0.3,0.1-0.5,0.2-0.8,0.4v-3.7c0.2-0.1,0.5-0.3,0.9-0.5
	c0.4-0.2,0.8-0.5,1.3-0.7c0.5-0.3,0.9-0.5,1.3-0.8c0.4-0.3,0.7-0.5,0.9-0.7h3.9v24.3H107.7z M122.9,272.2c-1.6,0-2.9-0.3-3.9-1
	c-1-0.7-1.7-1.6-2.1-2.7c-0.4-1.2-0.6-2.5-0.6-4c0-0.6,0.1-1.2,0.2-1.7c0.1-0.6,0.3-1.1,0.5-1.6c0.2-0.5,0.5-0.9,0.9-1.3
	c0.4-0.4,0.8-0.7,1.3-0.9c-0.6-0.5-1.2-1.1-1.7-2c-0.5-0.9-0.7-2-0.8-3.3c0-1.4,0.2-2.5,0.7-3.5c0.5-1,1.2-1.7,2.1-2.2
	c0.9-0.5,2.1-0.8,3.5-0.8c1.4,0,2.6,0.3,3.5,0.8c0.9,0.5,1.6,1.3,2.1,2.2c0.5,1,0.7,2.1,0.6,3.5c0,1.4-0.3,2.5-0.7,3.4
	c-0.5,0.9-1,1.5-1.6,2c0.5,0.2,0.9,0.5,1.2,0.9c0.4,0.4,0.7,0.8,0.9,1.3c0.2,0.5,0.4,1,0.5,1.6c0.1,0.6,0.2,1.1,0.2,1.7
	c0,1.5-0.2,2.8-0.6,4c-0.4,1.1-1.1,2-2.1,2.7C125.9,271.9,124.6,272.2,122.9,272.2z M122.9,268.5c0.5,0,0.9-0.2,1.2-0.6
	c0.2-0.4,0.4-0.9,0.5-1.4c0.1-0.6,0.1-1.1,0.1-1.5c0-0.6,0-1.2-0.1-1.8c-0.1-0.6-0.2-1-0.5-1.4c-0.2-0.4-0.6-0.6-1.2-0.6
	c-0.5,0-0.9,0.2-1.1,0.6c-0.2,0.4-0.4,0.8-0.5,1.4c-0.1,0.6-0.1,1.2-0.1,1.8c0,0.5,0,1,0.1,1.5c0.1,0.6,0.2,1,0.5,1.4
	C122,268.3,122.4,268.5,122.9,268.5z M122.9,257.3c0.3,0,0.6-0.1,0.8-0.4c0.2-0.3,0.4-0.7,0.5-1.2c0.1-0.5,0.2-1.2,0.2-2
	c0-0.8-0.1-1.5-0.4-2c-0.2-0.5-0.6-0.7-1.1-0.7s-0.9,0.2-1.2,0.7c-0.3,0.5-0.4,1.1-0.4,1.9c0,0.8,0,1.5,0.2,2c0.1,0.5,0.3,1,0.5,1.2
	C122.3,257.1,122.6,257.3,122.9,257.3z"/>
<rect x="192.1" y="63.7" class="st2" width="126.5" height="225.8"/>
<rect x="192.1" y="129.5" class="st0" width="126.5" height="160"/>
<path class="st1" d="M227.6,271.8v-3.5l5.8-8.9c0.4-0.7,0.9-1.3,1.2-1.9c0.4-0.6,0.7-1.2,1-1.9c0.3-0.6,0.4-1.3,0.4-2
	c0-0.7-0.1-1.2-0.4-1.6s-0.7-0.5-1.1-0.5c-0.5,0-1,0.1-1.3,0.5c-0.3,0.3-0.5,0.7-0.6,1.2c-0.1,0.5-0.1,1.1-0.1,1.7v1.2h-4.9v-1.3
	c0-1.4,0.2-2.7,0.7-3.8c0.5-1.1,1.2-2,2.2-2.7c1-0.7,2.3-1,3.9-1c2.2,0,3.8,0.6,4.9,1.7c1.1,1.1,1.7,2.7,1.7,4.7
	c0,1-0.2,1.9-0.5,2.7c-0.3,0.8-0.7,1.7-1.2,2.5c-0.5,0.8-1,1.6-1.6,2.5l-4.4,6.6h7.1v3.9H227.6z M249.7,272.3
	c-1.5,0-2.7-0.3-3.7-0.9c-1-0.6-1.7-1.4-2.2-2.5s-0.8-2.2-0.8-3.6v-11c0-1.4,0.2-2.7,0.7-3.7c0.5-1.1,1.2-1.9,2.2-2.5
	c1-0.6,2.2-0.9,3.8-0.9c1.5,0,2.8,0.3,3.7,0.9c1,0.6,1.7,1.4,2.2,2.5c0.5,1.1,0.7,2.3,0.7,3.7v11c0,1.4-0.2,2.6-0.8,3.6
	c-0.5,1-1.2,1.9-2.2,2.5C252.4,272,251.2,272.3,249.7,272.3z M249.7,267.8c0.5,0,0.8-0.2,1-0.5c0.2-0.3,0.4-0.7,0.4-1.1
	c0.1-0.4,0.1-0.8,0.1-1.1v-10.8c0-0.3,0-0.7-0.1-1.1c0-0.4-0.2-0.8-0.4-1.1c-0.2-0.3-0.6-0.5-1.1-0.5s-0.9,0.2-1.1,0.5
	c-0.2,0.3-0.3,0.7-0.4,1.1c0,0.4-0.1,0.8-0.1,1.1v10.8c0,0.3,0,0.7,0.1,1.1c0.1,0.4,0.2,0.8,0.4,1.1
	C248.9,267.7,249.3,267.8,249.7,267.8z M258.9,271.8v-3.5l5.8-8.9c0.4-0.7,0.9-1.3,1.2-1.9c0.4-0.6,0.7-1.2,1-1.9
	c0.3-0.6,0.4-1.3,0.4-2c0-0.7-0.1-1.2-0.4-1.6s-0.7-0.5-1.1-0.5c-0.5,0-1,0.1-1.3,0.5c-0.3,0.3-0.5,0.7-0.6,1.2
	c-0.1,0.5-0.1,1.1-0.1,1.7v1.2h-4.9v-1.3c0-1.4,0.2-2.7,0.7-3.8c0.5-1.1,1.2-2,2.2-2.7c1-0.7,2.3-1,3.9-1c2.2,0,3.8,0.6,4.9,1.7
	c1.1,1.1,1.7,2.7,1.7,4.7c0,1-0.2,1.9-0.5,2.7c-0.3,0.8-0.7,1.7-1.2,2.5c-0.5,0.8-1,1.6-1.6,2.5l-4.4,6.6h7.1v3.9H258.9z M275.2,272
	v-3.5l5.8-8.9c0.4-0.7,0.9-1.3,1.2-1.9c0.4-0.6,0.7-1.2,1-1.9c0.3-0.6,0.4-1.3,0.4-2c0-0.7-0.1-1.2-0.4-1.6s-0.7-0.5-1.1-0.5
	c-0.5,0-1,0.2-1.3,0.5c-0.3,0.3-0.5,0.7-0.6,1.2c-0.1,0.5-0.1,1.1-0.1,1.7v1.2h-4.9v-1.3c0-1.4,0.2-2.7,0.7-3.8
	c0.5-1.1,1.2-2,2.2-2.7c1-0.7,2.3-1,3.9-1c2.2,0,3.8,0.6,4.9,1.7c1.1,1.1,1.7,2.7,1.7,4.7c0,1-0.2,1.9-0.5,2.7
	c-0.3,0.8-0.7,1.7-1.2,2.5c-0.5,0.8-1,1.6-1.6,2.5l-4.4,6.6h7.1v3.9H275.2z"/>
<path class="st0" d="M373.2,43.1V23.7c-0.2,0.1-0.5,0.2-0.8,0.4c-0.3,0.1-0.6,0.2-0.9,0.4c-0.3,0.1-0.6,0.2-0.9,0.4
	c-0.3,0.1-0.5,0.2-0.8,0.4v-3.7c0.2-0.1,0.5-0.3,0.9-0.5c0.4-0.2,0.8-0.5,1.3-0.7c0.5-0.3,0.9-0.5,1.3-0.8c0.4-0.3,0.7-0.5,0.9-0.7
	h3.9v24.3H373.2z M388.5,43.5c-1.5,0-2.7-0.3-3.7-0.9c-1-0.6-1.7-1.4-2.2-2.5c-0.5-1-0.8-2.2-0.8-3.6v-11c0-1.4,0.2-2.7,0.7-3.7
	c0.5-1.1,1.2-1.9,2.2-2.5c1-0.6,2.2-0.9,3.8-0.9c1.5,0,2.8,0.3,3.7,0.9c1,0.6,1.7,1.4,2.2,2.5c0.5,1.1,0.7,2.3,0.7,3.7v11
	c0,1.4-0.2,2.6-0.8,3.6c-0.5,1-1.2,1.9-2.2,2.5C391.2,43.2,389.9,43.5,388.5,43.5z M388.5,39c0.5,0,0.8-0.1,1-0.5
	c0.2-0.3,0.4-0.7,0.4-1.1c0.1-0.4,0.1-0.8,0.1-1.1V25.7c0-0.3,0-0.7-0.1-1.1c0-0.4-0.2-0.8-0.4-1.1c-0.2-0.3-0.5-0.5-1-0.5
	s-0.9,0.2-1.1,0.5c-0.2,0.3-0.3,0.7-0.4,1.1c0,0.4-0.1,0.8-0.1,1.1v10.8c0,0.3,0,0.7,0.1,1.1c0.1,0.4,0.2,0.8,0.4,1.1
	C387.7,38.9,388,39,388.5,39z M398,43.1l5.3-20.5h-6.6v-3.8h11.5v3.4l-5.3,20.9H398z M410.7,47.3l-0.3-1.6c0.5-0.1,1-0.4,1.4-0.8
	c0.5-0.4,0.7-1,0.7-1.8H410v-4.6h4.7v4c0,1.5-0.4,2.6-1,3.5C413,46.7,412,47.2,410.7,47.3z M419.2,43.1V23.7
	c-0.2,0.1-0.5,0.2-0.8,0.4c-0.3,0.1-0.6,0.2-0.9,0.4c-0.3,0.1-0.6,0.2-0.9,0.4c-0.3,0.1-0.5,0.2-0.8,0.4v-3.7
	c0.2-0.1,0.5-0.3,0.9-0.5c0.4-0.2,0.8-0.5,1.3-0.7c0.5-0.3,0.9-0.5,1.3-0.8c0.4-0.3,0.7-0.5,0.9-0.7h3.9v24.3H419.2z M434.5,43.1
	v-5.5H427v-3.7l6.3-15.1h5.8v15.1h2.2v3.7h-2.2v5.5H434.5z M430.8,33.9h3.7V23.8L430.8,33.9z M449.2,43.5c-1.7,0-3-0.3-4-1
	c-1-0.6-1.6-1.5-2.1-2.7c-0.4-1.2-0.6-2.5-0.6-4V35h5c0,0,0,0.1,0,0.3s0,0.4,0,0.5c0,0.8,0,1.4,0.2,1.9c0.1,0.5,0.3,0.9,0.5,1.1
	c0.3,0.2,0.6,0.3,1.1,0.3c0.5,0,0.8-0.1,1-0.4c0.2-0.2,0.4-0.6,0.5-1.1c0.1-0.5,0.1-1.1,0.1-1.8c0-1.2-0.2-2.1-0.5-2.7
	c-0.3-0.6-1-1-2-1c0,0-0.1,0-0.3,0s-0.4,0-0.6,0v-3.4c0.1,0,0.3,0,0.4,0c0.1,0,0.3,0,0.4,0c1.1,0,1.8-0.3,2.1-0.9
	c0.4-0.6,0.5-1.5,0.5-2.7c0-0.9-0.1-1.7-0.4-2.2c-0.2-0.5-0.7-0.8-1.4-0.8c-0.7,0-1.1,0.3-1.3,0.8c-0.2,0.6-0.3,1.3-0.3,2.2
	c0,0.2,0,0.4,0,0.6c0,0.2,0,0.4,0,0.6h-5v-1.5c0-1.5,0.3-2.7,0.8-3.7c0.5-1,1.3-1.8,2.3-2.3c1-0.5,2.2-0.8,3.6-0.8
	c1.4,0,2.6,0.2,3.6,0.8s1.8,1.2,2.3,2.2c0.5,1,0.8,2.2,0.8,3.6c0,1.4-0.3,2.6-0.9,3.6c-0.6,1-1.3,1.6-2.1,1.8c0.6,0.2,1.1,0.5,1.5,1
	c0.5,0.4,0.8,1,1.1,1.8c0.3,0.7,0.4,1.7,0.4,2.9c0,1.5-0.2,2.8-0.7,3.9c-0.4,1.1-1.1,2-2.1,2.7C452.2,43.2,450.9,43.5,449.2,43.5z"
	/>
<rect x="350.3" y="63.7" class="st2" width="126.5" height="225.8"/>
<rect x="350.3" y="185" class="st0" width="126.5" height="104.5"/>
<path class="st1" d="M383.3,271.8v-3.5l5.8-8.9c0.4-0.7,0.8-1.3,1.2-1.9c0.4-0.6,0.7-1.2,1-1.9c0.3-0.6,0.4-1.3,0.4-2
	c0-0.7-0.1-1.2-0.4-1.6s-0.7-0.5-1.1-0.5c-0.5,0-1,0.1-1.3,0.5c-0.3,0.3-0.5,0.7-0.6,1.2c-0.1,0.5-0.1,1.1-0.1,1.7v1.2h-4.9v-1.3
	c0-1.4,0.2-2.7,0.7-3.8c0.5-1.1,1.2-2,2.2-2.7c1-0.7,2.3-1,3.9-1c2.2,0,3.8,0.6,4.9,1.7c1.1,1.1,1.7,2.7,1.7,4.7
	c0,1-0.2,1.9-0.5,2.7c-0.3,0.8-0.7,1.7-1.2,2.5c-0.5,0.8-1,1.6-1.6,2.5l-4.4,6.6h7.1v3.9H383.3z M405.5,272.3
	c-1.5,0-2.7-0.3-3.7-0.9c-1-0.6-1.7-1.4-2.2-2.5s-0.8-2.2-0.8-3.6v-11c0-1.4,0.2-2.7,0.7-3.7c0.5-1.1,1.2-1.9,2.2-2.5
	c1-0.6,2.2-0.9,3.8-0.9c1.5,0,2.8,0.3,3.7,0.9c1,0.6,1.7,1.4,2.2,2.5c0.5,1.1,0.7,2.3,0.7,3.7v11c0,1.4-0.2,2.6-0.8,3.6
	c-0.5,1-1.2,1.9-2.2,2.5C408.1,272,406.9,272.3,405.5,272.3z M405.5,267.8c0.5,0,0.8-0.2,1-0.5c0.2-0.3,0.4-0.7,0.4-1.1
	c0.1-0.4,0.1-0.8,0.1-1.1v-10.8c0-0.3,0-0.7-0.1-1.1c0-0.4-0.2-0.8-0.4-1.1c-0.2-0.3-0.5-0.5-1-0.5s-0.9,0.2-1.1,0.5
	c-0.2,0.3-0.3,0.7-0.4,1.1c0,0.4-0.1,0.8-0.1,1.1v10.8c0,0.3,0,0.7,0.1,1.1c0.1,0.4,0.2,0.8,0.4,1.1
	C404.7,267.7,405,267.8,405.5,267.8z M421.2,272.3c-1.7,0-3-0.3-4-1c-1-0.6-1.6-1.5-2.1-2.7c-0.4-1.2-0.6-2.5-0.6-4v-0.9h5
	c0,0,0,0.1,0,0.3c0,0.2,0,0.4,0,0.5c0,0.8,0,1.5,0.1,2c0.1,0.5,0.3,0.9,0.5,1.1c0.3,0.2,0.6,0.3,1.1,0.3c0.5,0,0.8-0.1,1-0.4
	c0.2-0.2,0.4-0.6,0.5-1.1c0.1-0.5,0.1-1.1,0.1-1.8c0-1.2-0.2-2.1-0.5-2.7c-0.3-0.6-1-1-2-1c0,0-0.1,0-0.3,0c-0.2,0-0.4,0-0.6,0v-3.5
	c0.1,0,0.3,0,0.4,0c0.1,0,0.3,0,0.4,0c1.1,0,1.8-0.3,2.1-0.9c0.4-0.6,0.5-1.5,0.5-2.7c0-0.9-0.1-1.7-0.4-2.2
	c-0.2-0.5-0.7-0.8-1.4-0.8c-0.7,0-1.1,0.3-1.3,0.8c-0.2,0.6-0.3,1.3-0.3,2.2c0,0.2,0,0.4,0,0.6c0,0.2,0,0.4,0,0.6h-5V254
	c0-1.5,0.3-2.7,0.8-3.7c0.5-1,1.3-1.8,2.3-2.3c1-0.5,2.2-0.8,3.6-0.8c1.4,0,2.6,0.2,3.6,0.8s1.8,1.2,2.3,2.2c0.5,1,0.8,2.2,0.8,3.6
	c0,1.4-0.3,2.6-0.9,3.6c-0.6,1-1.3,1.5-2.1,1.8c0.6,0.2,1.1,0.5,1.5,1c0.5,0.4,0.8,1,1.1,1.8c0.3,0.7,0.4,1.7,0.4,2.8
	c0,1.5-0.2,2.8-0.7,3.9c-0.4,1.1-1.1,2-2.1,2.7C424.2,272,422.9,272.3,421.2,272.3z M436.8,272.3c-1.5,0-2.7-0.3-3.7-0.9
	c-1-0.6-1.7-1.4-2.2-2.5s-0.8-2.2-0.8-3.6v-11c0-1.4,0.2-2.7,0.7-3.7c0.5-1.1,1.2-1.9,2.2-2.5c1-0.6,2.2-0.9,3.8-0.9
	c1.5,0,2.8,0.3,3.7,0.9c1,0.6,1.7,1.4,2.2,2.5c0.5,1.1,0.7,2.3,0.7,3.7v11c0,1.4-0.2,2.6-0.8,3.6c-0.5,1-1.2,1.9-2.2,2.5
	C439.4,272,438.2,272.3,436.8,272.3z M436.8,267.8c0.5,0,0.8-0.2,1-0.5c0.2-0.3,0.4-0.7,0.4-1.1c0.1-0.4,0.1-0.8,0.1-1.1v-10.8
	c0-0.3,0-0.7-0.1-1.1c0-0.4-0.2-0.8-0.4-1.1c-0.2-0.3-0.5-0.5-1-0.5s-0.9,0.2-1.1,0.5c-0.2,0.3-0.3,0.7-0.4,1.1
	c0,0.4-0.1,0.8-0.1,1.1v10.8c0,0.3,0,0.7,0.1,1.1c0.1,0.4,0.2,0.8,0.4,1.1C436,267.7,436.3,267.8,436.8,267.8z"/>
<path class="st0" d="M205.9,41.4V22c-0.2,0.1-0.5,0.2-0.8,0.4s-0.6,0.2-0.9,0.4c-0.3,0.1-0.6,0.2-0.9,0.4c-0.3,0.1-0.5,0.2-0.8,0.4
	v-3.7c0.2-0.1,0.5-0.3,0.9-0.5c0.4-0.2,0.8-0.5,1.3-0.7c0.5-0.3,0.9-0.5,1.3-0.8c0.4-0.3,0.7-0.5,0.9-0.7h3.9v24.3H205.9z
	 M246.5,45.6l-0.3-1.6c0.5-0.1,1-0.4,1.4-0.8c0.5-0.4,0.7-1,0.7-1.8h-2.6v-4.6h4.6v4c0,1.5-0.4,2.6-1,3.5
	C248.7,45,247.8,45.5,246.5,45.6z M233.4,41.4V22c-0.2,0.1-0.5,0.2-0.8,0.4c-0.3,0.1-0.6,0.2-0.9,0.4c-0.3,0.1-0.6,0.2-0.9,0.4
	c-0.3,0.1-0.5,0.2-0.8,0.4v-3.7c0.2-0.1,0.5-0.3,0.9-0.5c0.4-0.2,0.8-0.5,1.3-0.7c0.5-0.3,0.9-0.5,1.3-0.8c0.4-0.3,0.7-0.5,0.9-0.7
	h3.9v24.3H233.4z M257.7,41.8c-1.8,0-3.1-0.3-4-0.9c-0.9-0.6-1.5-1.5-1.8-2.7c-0.3-1.1-0.5-2.5-0.5-4h4.8c0,0.9,0.1,1.7,0.2,2.2
	c0.1,0.6,0.3,1,0.5,1.3c0.3,0.2,0.7,0.3,1.2,0.3c0.5,0,0.9-0.2,1.1-0.6c0.2-0.4,0.4-1,0.4-1.7c0.1-0.8,0.1-1.7,0.1-2.7
	c0-0.8,0-1.5-0.1-2.1c-0.1-0.6-0.3-1.1-0.5-1.5c-0.3-0.4-0.7-0.6-1.2-0.6c-0.5,0-0.9,0.2-1.2,0.5s-0.6,0.9-0.7,1.7h-4.3l0.5-14h11.3
	v4.2h-7.3l-0.3,5c0.2-0.3,0.6-0.5,1.1-0.7c0.6-0.2,1.2-0.4,1.8-0.4c1.2-0.1,2.3,0.1,3.1,0.7c0.9,0.6,1.5,1.5,1.9,2.7
	c0.4,1.2,0.7,2.7,0.7,4.4c0,1.3-0.1,2.5-0.2,3.6c-0.2,1.1-0.5,2-0.9,2.8c-0.5,0.8-1.1,1.4-2,1.8C260.2,41.6,259.1,41.8,257.7,41.8z
	 M272.5,41.7c-1.6,0-2.8-0.2-3.7-0.7c-0.9-0.5-1.5-1.2-1.9-2.1c-0.4-0.9-0.6-2.1-0.6-3.5c0-0.1,0-0.1,0-0.2c0-0.1,0-0.2,0-0.2h4.7
	c0,1,0.1,1.7,0.2,2.2c0.2,0.5,0.6,0.7,1.3,0.7c0.5,0,0.8-0.1,1-0.4s0.4-0.8,0.4-1.5c0.1-0.7,0.1-1.7,0.1-2.9v-2.2
	c-0.3,0.4-0.7,0.7-1.2,1c-0.5,0.2-1.1,0.4-1.8,0.4c-1.3,0-2.3-0.3-3.1-1s-1.3-1.5-1.7-2.7s-0.5-2.3-0.5-3.7c0-1.7,0.2-3.2,0.6-4.4
	c0.4-1.2,1.2-2.2,2.1-2.9c1-0.7,2.3-1,3.9-1c1.6,0,2.9,0.3,3.9,1c1,0.6,1.7,1.5,2.1,2.7c0.5,1.1,0.7,2.5,0.7,4v9.1
	c0,1.6-0.2,3-0.6,4.2c-0.4,1.2-1,2.2-2,2.9C275.7,41.4,274.3,41.7,272.5,41.7z M272.6,28.5c0.4,0,0.7-0.1,1-0.3
	c0.2-0.2,0.4-0.4,0.6-0.6v-4c0-0.6,0-1.1-0.1-1.5c-0.1-0.5-0.2-0.9-0.4-1.1c-0.2-0.3-0.6-0.5-1-0.5c-0.4,0-0.8,0.2-1,0.5
	c-0.2,0.3-0.4,0.8-0.5,1.4c-0.1,0.6-0.1,1.3-0.1,2.2c0,0.8,0,1.5,0.1,2.1c0.1,0.6,0.2,1,0.4,1.4C271.7,28.3,272.1,28.5,272.6,28.5z
	 M289.1,41.7c-1.6,0-3-0.3-3.9-1c-1-0.7-1.7-1.6-2.1-2.7c-0.4-1.2-0.6-2.5-0.6-4c0-0.6,0.1-1.2,0.2-1.7c0.1-0.6,0.3-1.1,0.5-1.6
	c0.2-0.5,0.5-0.9,0.9-1.3c0.4-0.4,0.8-0.7,1.3-0.9c-0.6-0.5-1.2-1.1-1.6-2c-0.5-0.9-0.7-2-0.8-3.3c0-1.4,0.2-2.5,0.7-3.5
	c0.5-1,1.2-1.7,2.1-2.2s2.1-0.8,3.5-0.8c1.4,0,2.6,0.3,3.5,0.8c0.9,0.5,1.6,1.3,2.1,2.2c0.5,1,0.7,2.1,0.6,3.5
	c0,1.4-0.3,2.5-0.7,3.4c-0.5,0.9-1,1.5-1.6,2c0.5,0.2,0.9,0.5,1.2,0.9c0.4,0.4,0.6,0.8,0.9,1.3c0.2,0.5,0.4,1,0.5,1.6
	c0.1,0.6,0.2,1.1,0.2,1.7c0,1.5-0.2,2.8-0.6,4c-0.4,1.1-1.1,2-2.1,2.7C292.1,41.4,290.8,41.7,289.1,41.7z M289.1,38
	c0.5,0,0.9-0.2,1.2-0.6c0.2-0.4,0.4-0.9,0.5-1.4c0.1-0.6,0.1-1.1,0.1-1.5c0-0.6,0-1.2-0.1-1.8c-0.1-0.6-0.2-1-0.5-1.4
	c-0.2-0.4-0.6-0.6-1.2-0.6c-0.5,0-0.9,0.2-1.1,0.6c-0.2,0.4-0.4,0.8-0.5,1.4c-0.1,0.6-0.1,1.2-0.1,1.8c0,0.5,0,1,0.1,1.5
	s0.2,1,0.4,1.4C288.2,37.9,288.6,38,289.1,38z M289.1,26.8c0.3,0,0.6-0.1,0.8-0.4c0.2-0.3,0.4-0.7,0.5-1.2c0.1-0.5,0.2-1.2,0.2-2
	c0-0.8-0.1-1.5-0.4-1.9c-0.2-0.5-0.6-0.7-1.1-0.7s-0.9,0.2-1.2,0.7c-0.3,0.5-0.4,1.1-0.4,1.9s0,1.5,0.1,2c0.1,0.5,0.3,1,0.5,1.2
	C288.5,26.6,288.8,26.8,289.1,26.8z M216.5,41.6l5.3-20.5h-6.6v-3.8h11.5v3.5l-5.3,20.8H216.5z"/>
<path class="st0" d="M39.1,335.1v-19.4h5.4c1.3,0,2.4,0.1,3.4,0.4c1,0.3,1.7,0.8,2.2,1.6c0.5,0.7,0.8,1.8,0.8,3.1
	c0,0.8-0.1,1.5-0.2,2.1c-0.1,0.6-0.4,1.2-0.7,1.6c-0.3,0.4-0.8,0.8-1.5,1.1l2.7,9.4h-4.4l-2.1-8.7h-1.2v8.7H39.1z M43.4,323.9h1.2
	c0.6,0,1.1-0.1,1.4-0.3c0.3-0.2,0.6-0.5,0.7-0.9c0.1-0.4,0.2-0.9,0.2-1.5c0-0.8-0.2-1.5-0.5-1.9c-0.3-0.5-0.9-0.7-1.7-0.7h-1.4
	V323.9z M53,335.1v-19.4h8.7v2.9h-4.4v4.8h3.4v3h-3.4v5.8h4.5v2.9H53z M68.4,335.4c-1.2,0-2.2-0.2-3-0.6c-0.8-0.4-1.4-1.1-1.8-2
	c-0.4-0.9-0.6-2.1-0.7-3.5l3.7-0.6c0,0.8,0.1,1.5,0.2,2c0.1,0.5,0.3,0.9,0.6,1.1c0.3,0.2,0.6,0.3,0.9,0.3c0.4,0,0.7-0.2,0.9-0.5
	c0.1-0.3,0.2-0.6,0.2-1c0-0.8-0.2-1.5-0.6-2c-0.4-0.6-0.9-1.1-1.6-1.7l-1.7-1.5c-0.7-0.6-1.4-1.3-1.9-2.1c-0.5-0.8-0.7-1.8-0.7-3
	c0-1.6,0.5-2.9,1.5-3.8c1-0.9,2.3-1.3,4-1.3c1,0,1.9,0.2,2.5,0.5c0.6,0.4,1.1,0.8,1.4,1.4c0.3,0.6,0.6,1.2,0.7,1.8
	c0.1,0.6,0.2,1.2,0.2,1.8l-3.7,0.5c0-0.6-0.1-1.1-0.1-1.5c0-0.4-0.2-0.8-0.3-1c-0.2-0.2-0.4-0.4-0.8-0.4c-0.4,0-0.7,0.2-0.9,0.5
	c-0.2,0.3-0.3,0.7-0.3,1c0,0.7,0.2,1.3,0.5,1.8c0.4,0.4,0.8,0.9,1.4,1.4l1.6,1.4c0.8,0.7,1.6,1.5,2.1,2.4c0.6,0.9,0.9,2,0.9,3.4
	c0,0.9-0.2,1.7-0.6,2.5c-0.4,0.7-1,1.3-1.8,1.8C70.4,335.1,69.5,335.4,68.4,335.4z M80.7,335.4c-1.5,0-2.7-0.2-3.5-0.7
	c-0.8-0.5-1.4-1.2-1.8-2.1c-0.3-0.9-0.5-2.1-0.5-3.5v-13.4h4.2v14.1c0,0.4,0,0.8,0.1,1.2c0.1,0.4,0.2,0.7,0.4,1
	c0.2,0.3,0.6,0.4,1,0.4c0.5,0,0.8-0.1,1-0.4c0.2-0.3,0.3-0.6,0.4-1c0.1-0.4,0.1-0.8,0.1-1.2v-14.1h4.3V329c0,1.4-0.2,2.5-0.5,3.5
	c-0.3,0.9-0.9,1.6-1.8,2.1C83.4,335.1,82.2,335.4,80.7,335.4z M88.7,335.1v-19.4H93v16.5h4.5v2.9H88.7z M99.3,335.1v-16.2h-2.9v-3.2
	h10.2v3.2h-2.9v16.2H99.3z M106,335.1l3.7-19.4h4.9l3.6,19.4h-4l-0.6-4.1h-2.9l-0.7,4.1H106z M111.1,328.4h2.1l-1-7.6L111.1,328.4z
	 M119.6,335.1v-19.4h4.9c1.7,0,3,0.2,4,0.6c0.9,0.4,1.6,1.1,2,2c0.4,0.9,0.6,2.1,0.6,3.5v7.1c0,1.5-0.2,2.6-0.6,3.6
	c-0.4,0.9-1,1.6-2,2c-0.9,0.4-2.2,0.6-3.9,0.6H119.6z M123.9,332.1h0.7c0.7,0,1.1-0.1,1.4-0.3c0.3-0.2,0.5-0.5,0.5-0.9
	c0.1-0.4,0.1-0.9,0.1-1.4V321c0-0.6,0-1-0.1-1.4c-0.1-0.4-0.3-0.6-0.6-0.8c-0.3-0.2-0.8-0.2-1.4-0.2h-0.6V332.1z M138.8,335.4
	c-1.5,0-2.6-0.3-3.5-0.8c-0.8-0.5-1.5-1.2-1.8-2.2c-0.4-1-0.6-2.1-0.6-3.4v-7.2c0-1.3,0.2-2.5,0.6-3.4c0.4-0.9,1-1.7,1.8-2.2
	c0.8-0.5,2-0.8,3.5-0.8c1.5,0,2.6,0.3,3.5,0.8c0.9,0.5,1.5,1.2,1.8,2.2c0.4,0.9,0.6,2.1,0.6,3.4v7.2c0,1.3-0.2,2.5-0.6,3.4
	c-0.4,1-1,1.7-1.8,2.2C141.4,335.1,140.3,335.4,138.8,335.4z M138.8,332.3c0.4,0,0.8-0.1,1-0.3c0.2-0.2,0.3-0.5,0.4-0.9
	c0.1-0.4,0.1-0.7,0.1-1.1v-9.4c0-0.4,0-0.7-0.1-1.1c-0.1-0.4-0.2-0.6-0.4-0.9c-0.2-0.2-0.5-0.3-1-0.3c-0.4,0-0.7,0.1-0.9,0.3
	c-0.2,0.2-0.3,0.5-0.4,0.9c-0.1,0.3-0.1,0.7-0.1,1.1v9.4c0,0.4,0,0.7,0.1,1.1c0.1,0.4,0.2,0.6,0.4,0.9
	C138,332.2,138.3,332.3,138.8,332.3z M151.5,335.1l3.7-19.4h4.9l3.6,19.4h-4l-0.6-4.1h-2.9l-0.7,4.1H151.5z M156.6,328.4h2.1l-1-7.6
	L156.6,328.4z M165.9,335.1v-16.2H163v-3.2h10.2v3.2h-2.9v16.2H165.9z M174.4,335.1v-19.4h8.7v2.9h-4.4v4.8h3.4v3h-3.4v5.8h4.5v2.9
	H174.4z M177.5,314.1l1.5-4.8h4l-3,4.8H177.5z M189.8,335.1v-2.8l4.7-7.2c0.4-0.5,0.7-1,1-1.5c0.3-0.5,0.6-1,0.8-1.5
	c0.2-0.5,0.3-1,0.3-1.6c0-0.6-0.1-1-0.3-1.2s-0.5-0.4-0.9-0.4c-0.4,0-0.8,0.1-1,0.4c-0.2,0.2-0.4,0.6-0.5,1
	c-0.1,0.4-0.1,0.8-0.1,1.3v1h-3.9v-1c0-1.2,0.2-2.2,0.6-3.1c0.4-0.9,1-1.6,1.8-2.1c0.8-0.5,1.8-0.8,3.1-0.8c1.7,0,3.1,0.5,3.9,1.4
	c0.9,0.9,1.3,2.2,1.3,3.8c0,0.8-0.1,1.5-0.4,2.2c-0.2,0.7-0.6,1.3-1,2c-0.4,0.6-0.8,1.3-1.3,2l-3.6,5.3h5.7v3.1H189.8z M207.3,335.4
	c-1.2,0-2.1-0.2-2.9-0.7c-0.8-0.5-1.4-1.1-1.8-2c-0.4-0.8-0.6-1.8-0.6-2.9v-8.8c0-1.1,0.2-2.1,0.6-3c0.4-0.9,1-1.5,1.8-2
	c0.8-0.5,1.8-0.7,3-0.7s2.2,0.2,3,0.7c0.8,0.5,1.4,1.2,1.7,2c0.4,0.8,0.6,1.8,0.6,3v8.8c0,1.1-0.2,2.1-0.6,2.9c-0.4,0.8-1,1.5-1.8,2
	C209.4,335.2,208.4,335.4,207.3,335.4z M207.3,331.9c0.4,0,0.7-0.1,0.8-0.4c0.2-0.3,0.3-0.5,0.3-0.9c0-0.3,0.1-0.6,0.1-0.9v-8.6
	c0-0.3,0-0.6,0-0.9c0-0.4-0.1-0.7-0.3-0.9c-0.2-0.3-0.4-0.4-0.8-0.4s-0.7,0.1-0.9,0.4c-0.2,0.3-0.3,0.6-0.3,0.9c0,0.3,0,0.6,0,0.9
	v8.6c0,0.2,0,0.5,0.1,0.9c0,0.3,0.2,0.6,0.3,0.9C206.7,331.7,206.9,331.9,207.3,331.9z M219.7,335.4c-1.4,0-2.4-0.3-3.2-0.8
	c-0.8-0.5-1.3-1.2-1.7-2.1c-0.3-0.9-0.5-2-0.5-3.2v-0.7h4c0,0,0,0.1,0,0.3s0,0.3,0,0.4c0,0.6,0,1.2,0.1,1.6s0.2,0.7,0.4,0.9
	c0.2,0.2,0.5,0.3,0.9,0.3s0.6-0.1,0.8-0.3c0.2-0.2,0.3-0.5,0.4-0.9s0.1-0.9,0.1-1.4c0-1-0.1-1.7-0.4-2.2c-0.3-0.5-0.8-0.8-1.6-0.8
	c0,0-0.1,0-0.3,0c-0.2,0-0.3,0-0.5,0v-2.8c0.1,0,0.2,0,0.3,0s0.2,0,0.3,0c0.8,0,1.4-0.2,1.7-0.7s0.4-1.2,0.4-2.2
	c0-0.8-0.1-1.3-0.3-1.7c-0.2-0.4-0.6-0.6-1.1-0.6c-0.5,0-0.9,0.2-1.1,0.7c-0.2,0.4-0.2,1-0.2,1.7c0,0.2,0,0.3,0,0.5
	c0,0.2,0,0.3,0,0.5h-4v-1.2c0-1.2,0.2-2.2,0.6-3c0.4-0.8,1-1.4,1.8-1.8c0.8-0.4,1.8-0.6,2.9-0.6c1.1,0,2.1,0.2,2.9,0.6
	c0.8,0.4,1.4,1,1.8,1.8c0.4,0.8,0.6,1.7,0.6,2.9c0,1.1-0.2,2.1-0.7,2.9s-1,1.2-1.7,1.4c0.4,0.2,0.8,0.4,1.2,0.8
	c0.4,0.4,0.7,0.8,0.9,1.4c0.2,0.6,0.3,1.4,0.3,2.3c0,1.2-0.2,2.2-0.5,3.1c-0.3,0.9-0.9,1.6-1.7,2.2C222,335.2,221,335.4,219.7,335.4
	z M231.9,335.4c-1.2,0-2.1-0.2-2.9-0.7c-0.8-0.5-1.4-1.1-1.8-2c-0.4-0.8-0.6-1.8-0.6-2.9v-8.8c0-1.1,0.2-2.1,0.6-3
	c0.4-0.9,1-1.5,1.8-2c0.8-0.5,1.8-0.7,3-0.7s2.2,0.2,3,0.7c0.8,0.5,1.4,1.2,1.7,2c0.4,0.8,0.6,1.8,0.6,3v8.8c0,1.1-0.2,2.1-0.6,2.9
	c-0.4,0.8-1,1.5-1.8,2C234,335.2,233,335.4,231.9,335.4z M231.9,331.9c0.4,0,0.7-0.1,0.8-0.4c0.2-0.3,0.3-0.5,0.3-0.9
	c0-0.3,0.1-0.6,0.1-0.9v-8.6c0-0.3,0-0.6,0-0.9c0-0.4-0.1-0.7-0.3-0.9c-0.2-0.3-0.4-0.4-0.8-0.4c-0.4,0-0.7,0.1-0.9,0.4
	c-0.2,0.3-0.3,0.6-0.3,0.9c0,0.3,0,0.6,0,0.9v8.6c0,0.2,0,0.5,0.1,0.9c0,0.3,0.2,0.6,0.3,0.9C231.2,331.7,231.5,331.9,231.9,331.9z"
	/>
<path class="st3" d="M44.7,365.4c-1.5,0-2.6-0.3-3.5-0.8c-0.8-0.5-1.5-1.2-1.8-2.2c-0.4-1-0.6-2.1-0.6-3.4v-7.2
	c0-1.3,0.2-2.5,0.6-3.4s1-1.7,1.8-2.2c0.8-0.5,2-0.8,3.5-0.8c1.5,0,2.6,0.3,3.5,0.8c0.9,0.5,1.5,1.2,1.8,2.2s0.6,2.1,0.6,3.4v7.2
	c0,1.3-0.2,2.5-0.6,3.4c-0.4,1-1,1.7-1.8,2.2C47.3,365.1,46.1,365.4,44.7,365.4z M44.7,362.3c0.4,0,0.8-0.1,1-0.3s0.3-0.5,0.4-0.9
	c0.1-0.4,0.1-0.7,0.1-1.1v-9.4c0-0.4,0-0.7-0.1-1.1c-0.1-0.4-0.2-0.6-0.4-0.9s-0.5-0.3-1-0.3c-0.4,0-0.7,0.1-0.9,0.3
	s-0.3,0.5-0.4,0.9c-0.1,0.3-0.1,0.7-0.1,1.1v9.4c0,0.4,0,0.7,0.1,1.1c0.1,0.4,0.2,0.6,0.4,0.9C43.9,362.2,44.2,362.3,44.7,362.3z
	 M52.7,365.1v-19.4h5.1c0.8,0,1.6,0.1,2.4,0.2c0.8,0.1,1.4,0.4,2,0.7c0.6,0.4,1,0.9,1.3,1.5c0.3,0.7,0.5,1.5,0.5,2.6
	c0,0.8-0.1,1.4-0.4,2c-0.2,0.5-0.6,1-1,1.3c-0.4,0.3-0.9,0.5-1.5,0.6c0.8,0.1,1.4,0.3,1.9,0.7c0.5,0.4,0.9,0.9,1.2,1.6
	c0.3,0.7,0.4,1.4,0.4,2.4c0,1-0.1,1.9-0.4,2.6c-0.3,0.7-0.6,1.3-1.1,1.8c-0.5,0.5-1.1,0.8-1.8,1c-0.7,0.2-1.6,0.3-2.5,0.3H52.7z
	 M57,362.1h0.9c0.9,0,1.6-0.2,1.9-0.7c0.4-0.5,0.6-1.2,0.6-2.1c0-0.7-0.1-1.3-0.2-1.8c-0.2-0.4-0.4-0.7-0.8-0.9
	c-0.4-0.2-0.9-0.3-1.5-0.3H57V362.1z M57,353.4h0.8c0.7,0,1.2-0.1,1.5-0.3c0.3-0.2,0.6-0.5,0.7-0.9c0.1-0.4,0.2-0.8,0.2-1.4
	c0-0.5-0.1-0.9-0.3-1.3c-0.2-0.4-0.4-0.6-0.8-0.8c-0.4-0.2-0.8-0.3-1.3-0.3H57V353.4z M65.2,365.6v-3c0.4,0,0.8,0,1.1-0.1
	s0.5-0.1,0.7-0.3c0.2-0.1,0.3-0.3,0.4-0.6c0.1-0.3,0.1-0.6,0.1-1v-15h4.3v15.2c0,1.1-0.1,1.9-0.4,2.7c-0.3,0.7-0.7,1.2-1.4,1.6
	c-0.7,0.4-1.6,0.5-2.8,0.5H65.2z M74.2,365.1v-19.4h8.7v2.9h-4.4v4.8h3.4v3h-3.4v5.8H83v2.9H74.2z M86.2,365.1v-16.2h-2.9v-3.2h10.2
	v3.2h-2.9v16.2H86.2z M94.7,365.1v-19.4H99v19.4H94.7z M104,365.1l-3.5-19.4h3.7l2.1,13.2l1.9-13.2h3.9l-3.6,19.4H104z M118.9,365.4
	c-1.5,0-2.6-0.3-3.5-0.8c-0.8-0.5-1.5-1.2-1.8-2.2c-0.4-1-0.6-2.1-0.6-3.4v-7.2c0-1.3,0.2-2.5,0.6-3.4c0.4-0.9,1-1.7,1.8-2.2
	c0.8-0.5,2-0.8,3.5-0.8c1.5,0,2.6,0.3,3.5,0.8c0.9,0.5,1.5,1.2,1.8,2.2c0.4,0.9,0.6,2.1,0.6,3.4v7.2c0,1.3-0.2,2.5-0.6,3.4
	c-0.4,1-1,1.7-1.8,2.2C121.5,365.1,120.4,365.4,118.9,365.4z M118.9,362.3c0.4,0,0.8-0.1,1-0.3s0.3-0.5,0.4-0.9
	c0.1-0.4,0.1-0.7,0.1-1.1v-9.4c0-0.4,0-0.7-0.1-1.1c-0.1-0.4-0.2-0.6-0.4-0.9s-0.5-0.3-1-0.3c-0.4,0-0.7,0.1-0.9,0.3
	s-0.3,0.5-0.4,0.9c-0.1,0.3-0.1,0.7-0.1,1.1v9.4c0,0.4,0,0.7,0.1,1.1c0.1,0.4,0.2,0.6,0.4,0.9C118.1,362.2,118.4,362.3,118.9,362.3z
	 M132.6,365.1v-19.4h8.7v2.9h-4.4v4.8h3.4v3h-3.4v5.8h4.5v2.9H132.6z M142.8,365.1l0.3-19.4h4.6l2.1,11.3l2.3-11.3h4.4l0.3,19.4h-3
	l-0.4-12.9l-2.3,12.9h-2.7l-2.4-13l-0.3,13H142.8z M159.3,365.1v-19.4h4.3v19.4H159.3z M171.1,365.4c-1.2,0-2.2-0.2-3-0.6
	c-0.8-0.4-1.4-1.1-1.8-2c-0.4-0.9-0.6-2.1-0.7-3.5l3.7-0.6c0,0.8,0.1,1.5,0.2,2c0.1,0.5,0.3,0.9,0.6,1.1c0.3,0.2,0.6,0.3,0.9,0.3
	c0.4,0,0.7-0.2,0.9-0.5c0.1-0.3,0.2-0.6,0.2-1c0-0.8-0.2-1.5-0.6-2c-0.4-0.6-0.9-1.1-1.6-1.7l-1.7-1.5c-0.7-0.6-1.4-1.3-1.9-2.1
	c-0.5-0.8-0.7-1.8-0.7-3c0-1.6,0.5-2.9,1.5-3.8c1-0.9,2.3-1.3,4-1.3c1,0,1.9,0.2,2.5,0.5c0.6,0.4,1.1,0.8,1.4,1.4
	c0.3,0.6,0.6,1.2,0.7,1.8c0.1,0.6,0.2,1.2,0.2,1.8l-3.7,0.5c0-0.6-0.1-1.1-0.1-1.5c0-0.4-0.2-0.8-0.3-1c-0.2-0.2-0.4-0.4-0.8-0.4
	c-0.4,0-0.7,0.2-0.9,0.5c-0.2,0.3-0.3,0.7-0.3,1c0,0.7,0.2,1.3,0.5,1.8c0.4,0.4,0.8,0.9,1.4,1.4l1.6,1.4c0.8,0.7,1.6,1.5,2.1,2.4
	c0.6,0.9,0.9,2,0.9,3.4c0,0.9-0.2,1.7-0.6,2.5c-0.4,0.7-1,1.3-1.8,1.8C173.1,365.1,172.2,365.4,171.1,365.4z M182.6,365.4
	c-1.2,0-2.2-0.2-3-0.6c-0.8-0.4-1.4-1.1-1.8-2c-0.4-0.9-0.6-2.1-0.7-3.5l3.7-0.6c0,0.8,0.1,1.5,0.2,2c0.1,0.5,0.3,0.9,0.6,1.1
	c0.3,0.2,0.6,0.3,0.9,0.3c0.4,0,0.7-0.2,0.9-0.5c0.1-0.3,0.2-0.6,0.2-1c0-0.8-0.2-1.5-0.6-2c-0.4-0.6-0.9-1.1-1.6-1.7l-1.7-1.5
	c-0.7-0.6-1.4-1.3-1.9-2.1c-0.5-0.8-0.7-1.8-0.7-3c0-1.6,0.5-2.9,1.5-3.8c1-0.9,2.3-1.3,4-1.3c1,0,1.9,0.2,2.5,0.5
	c0.6,0.4,1.1,0.8,1.4,1.4c0.3,0.6,0.6,1.2,0.7,1.8c0.1,0.6,0.2,1.2,0.2,1.8l-3.7,0.5c0-0.6-0.1-1.1-0.1-1.5c0-0.4-0.2-0.8-0.3-1
	c-0.2-0.2-0.4-0.4-0.8-0.4c-0.4,0-0.7,0.2-0.9,0.5c-0.2,0.3-0.3,0.7-0.3,1c0,0.7,0.2,1.3,0.5,1.8c0.4,0.4,0.8,0.9,1.4,1.4l1.6,1.4
	c0.8,0.7,1.6,1.5,2.1,2.4c0.6,0.9,0.9,2,0.9,3.4c0,0.9-0.2,1.7-0.6,2.5c-0.4,0.7-1,1.3-1.8,1.8C184.5,365.1,183.7,365.4,182.6,365.4
	z M194.9,365.4c-1.5,0-2.6-0.3-3.5-0.8c-0.8-0.5-1.5-1.2-1.8-2.2c-0.4-1-0.6-2.1-0.6-3.4v-7.2c0-1.3,0.2-2.5,0.6-3.4s1-1.7,1.8-2.2
	c0.8-0.5,2-0.8,3.5-0.8c1.5,0,2.6,0.3,3.5,0.8c0.9,0.5,1.5,1.2,1.8,2.2s0.6,2.1,0.6,3.4v7.2c0,1.3-0.2,2.5-0.6,3.4
	c-0.4,1-1,1.7-1.8,2.2C197.5,365.1,196.3,365.4,194.9,365.4z M194.9,362.3c0.4,0,0.8-0.1,1-0.3c0.2-0.2,0.3-0.5,0.4-0.9
	c0.1-0.4,0.1-0.7,0.1-1.1v-9.4c0-0.4,0-0.7-0.1-1.1c-0.1-0.4-0.2-0.6-0.4-0.9c-0.2-0.2-0.5-0.3-1-0.3c-0.4,0-0.7,0.1-0.9,0.3
	c-0.2,0.2-0.3,0.5-0.4,0.9c-0.1,0.3-0.1,0.7-0.1,1.1v9.4c0,0.4,0,0.7,0.1,1.1c0.1,0.4,0.2,0.6,0.4,0.9
	C194.1,362.2,194.4,362.3,194.9,362.3z M196.8,343.5c-0.4,0-0.8-0.1-1.1-0.3s-0.7-0.4-1-0.6c-0.3-0.2-0.6-0.3-0.9-0.3
	c-0.4,0-0.6,0.1-0.7,0.3c-0.1,0.2-0.2,0.4-0.2,0.7h-1.9c0-0.7,0.1-1.2,0.2-1.8c0.1-0.5,0.4-0.9,0.7-1.2c0.3-0.3,0.8-0.5,1.3-0.5
	c0.4,0,0.8,0.1,1.1,0.3c0.3,0.2,0.6,0.4,0.9,0.5c0.3,0.2,0.6,0.3,1,0.3c0.3,0,0.5-0.1,0.6-0.3c0.1-0.2,0.2-0.4,0.2-0.6h1.7
	c0,0.5,0,1-0.1,1.6c-0.1,0.5-0.2,1-0.5,1.3C197.8,343.3,197.4,343.5,196.8,343.5z M202.9,365.1v-19.4h8.7v2.9h-4.4v4.8h3.4v3h-3.4
	v5.8h4.5v2.9H202.9z M218.3,365.4c-1.2,0-2.2-0.2-3-0.6c-0.8-0.4-1.4-1.1-1.8-2c-0.4-0.9-0.6-2.1-0.7-3.5l3.7-0.6
	c0,0.8,0.1,1.5,0.2,2c0.1,0.5,0.3,0.9,0.6,1.1c0.3,0.2,0.6,0.3,0.9,0.3c0.4,0,0.7-0.2,0.9-0.5c0.1-0.3,0.2-0.6,0.2-1
	c0-0.8-0.2-1.5-0.6-2c-0.4-0.6-0.9-1.1-1.6-1.7l-1.7-1.5c-0.7-0.6-1.4-1.3-1.9-2.1c-0.5-0.8-0.7-1.8-0.7-3c0-1.6,0.5-2.9,1.5-3.8
	c1-0.9,2.3-1.3,4-1.3c1,0,1.9,0.2,2.5,0.5c0.6,0.4,1.1,0.8,1.4,1.4c0.3,0.6,0.6,1.2,0.7,1.8c0.1,0.6,0.2,1.2,0.2,1.8l-3.7,0.5
	c0-0.6-0.1-1.1-0.1-1.5c0-0.4-0.2-0.8-0.3-1c-0.2-0.2-0.4-0.4-0.8-0.4c-0.4,0-0.7,0.2-0.9,0.5c-0.2,0.3-0.3,0.7-0.3,1
	c0,0.7,0.2,1.3,0.5,1.8c0.4,0.4,0.8,0.9,1.4,1.4l1.6,1.4c0.8,0.7,1.6,1.5,2.1,2.4c0.6,0.9,0.9,2,0.9,3.4c0,0.9-0.2,1.7-0.6,2.5
	c-0.4,0.7-1,1.3-1.8,1.8C220.2,365.1,219.3,365.4,218.3,365.4z M235.7,365.4c-1.3,0-2.4-0.3-3.2-0.8c-0.8-0.6-1.3-1.3-1.7-2.4
	c-0.3-1-0.5-2.2-0.5-3.5v-6.5c0-1.4,0.2-2.6,0.5-3.6c0.4-1,1-1.8,1.8-2.3c0.9-0.6,2-0.8,3.5-0.8c1.4,0,2.6,0.2,3.4,0.7
	c0.8,0.5,1.4,1.1,1.8,2c0.4,0.8,0.5,1.8,0.5,3v1.2h-4.2v-1.6c0-0.4,0-0.8-0.1-1.2c0-0.4-0.2-0.6-0.4-0.8c-0.2-0.2-0.5-0.3-1-0.3
	c-0.5,0-0.8,0.1-1,0.4c-0.2,0.2-0.3,0.5-0.4,0.9c0,0.4-0.1,0.8-0.1,1.2v9c0,0.4,0,0.8,0.1,1.2c0.1,0.4,0.3,0.7,0.5,0.9
	c0.2,0.2,0.6,0.3,1,0.3c0.4,0,0.8-0.1,1-0.4s0.4-0.6,0.5-0.9c0.1-0.4,0.1-0.8,0.1-1.2v-2.3h-1.8V355h5.6v10.1h-2.8l-0.2-1.6
	c-0.3,0.5-0.6,1-1.1,1.4C237.2,365.2,236.6,365.4,235.7,365.4z M244.1,365.1v-19.4h8.7v2.9h-4.4v4.8h3.4v3h-3.4v5.8h4.5v2.9H244.1z
	 M254.4,365.1v-19.4h8.7v2.9h-4.4v4.8h3.4v3h-3.4v5.8h4.5v2.9H254.4z M274.3,368.3c-0.8,0-1.5-0.2-2-0.5c-0.5-0.3-1-0.8-1.3-1.3
	c-0.3-0.6-0.5-1.2-0.7-2c-0.2-0.8-0.3-1.6-0.3-2.4s-0.1-1.8-0.1-2.7c0-1,0-1.9,0.1-2.8c0-0.9,0.1-1.7,0.3-2.5c0.2-0.8,0.4-1.4,0.7-2
	c0.3-0.6,0.8-1,1.3-1.3c0.5-0.3,1.2-0.5,2-0.5v2.1c-0.3,0-0.6,0.2-0.8,0.5c-0.2,0.3-0.4,0.8-0.5,1.4c-0.1,0.6-0.2,1.3-0.3,2.2
	c0,0.9-0.1,1.9-0.1,3c0,1.1,0,2.1,0.1,3c0,0.9,0.1,1.6,0.3,2.1c0.1,0.6,0.3,1,0.5,1.3c0.2,0.3,0.5,0.4,0.8,0.4V368.3z M277.2,365.1
	v-12.2H275v-2.4h7.6v2.4h-2.2v12.2H277.2z M287.7,365.3c-1.1,0-2-0.2-2.6-0.6c-0.6-0.4-1.1-1-1.4-1.7c-0.3-0.7-0.4-1.6-0.4-2.6v-5.3
	c0-1,0.1-1.9,0.4-2.6c0.3-0.7,0.7-1.3,1.4-1.7c0.6-0.4,1.5-0.6,2.6-0.6c1.1,0,1.9,0.2,2.5,0.5c0.6,0.3,1,0.8,1.3,1.5
	c0.3,0.6,0.4,1.4,0.4,2.2v1.3h-3.1v-1.5c0-0.3,0-0.6-0.1-0.8c0-0.3-0.1-0.5-0.3-0.6c-0.1-0.2-0.4-0.3-0.7-0.3
	c-0.3,0-0.6,0.1-0.8,0.3c-0.2,0.2-0.3,0.4-0.3,0.7c0,0.3-0.1,0.5-0.1,0.8v6.9c0,0.3,0,0.6,0.1,0.9c0.1,0.3,0.2,0.5,0.3,0.6
	c0.2,0.2,0.4,0.2,0.7,0.2c0.3,0,0.6-0.1,0.7-0.3c0.1-0.2,0.2-0.4,0.3-0.7c0-0.3,0.1-0.6,0.1-0.8v-1.5h3.1v1.3c0,0.8-0.1,1.6-0.4,2.2
	c-0.2,0.6-0.7,1.2-1.3,1.5C289.7,365.1,288.8,365.3,287.7,365.3z M297.7,365.3c-1.1,0-2-0.2-2.6-0.6c-0.6-0.4-1.1-0.9-1.4-1.7
	s-0.4-1.6-0.4-2.6v-5.4c0-1,0.1-1.9,0.4-2.6s0.7-1.2,1.4-1.6c0.6-0.4,1.5-0.6,2.6-0.6c1.1,0,2,0.2,2.6,0.6c0.6,0.4,1.1,0.9,1.4,1.6
	s0.4,1.6,0.4,2.6v5.4c0,1-0.1,1.9-0.4,2.6s-0.7,1.3-1.4,1.7C299.7,365.1,298.8,365.3,297.7,365.3z M297.7,363c0.3,0,0.6-0.1,0.7-0.3
	s0.3-0.4,0.3-0.6s0.1-0.5,0.1-0.8v-7c0-0.3,0-0.6-0.1-0.8c0-0.3-0.1-0.5-0.3-0.6s-0.4-0.3-0.7-0.3c-0.3,0-0.5,0.1-0.7,0.3
	s-0.3,0.4-0.3,0.6c0,0.3-0.1,0.5-0.1,0.8v7c0,0.3,0,0.5,0.1,0.8c0,0.3,0.1,0.5,0.3,0.6C297.1,362.9,297.3,363,297.7,363z
	 M303.4,365.1v-1.7l2.7-4.2c0.2-0.3,0.4-0.6,0.6-0.9c0.2-0.3,0.3-0.6,0.4-0.9c0.1-0.3,0.2-0.6,0.2-0.9s-0.1-0.6-0.2-0.7
	c-0.1-0.2-0.3-0.2-0.5-0.2c-0.3,0-0.4,0.1-0.6,0.2c-0.1,0.1-0.2,0.3-0.3,0.6c0,0.2-0.1,0.5-0.1,0.8v0.6h-2.3v-0.6
	c0-0.7,0.1-1.3,0.3-1.8c0.2-0.5,0.6-0.9,1-1.2c0.5-0.3,1.1-0.5,1.8-0.5c1,0,1.8,0.3,2.3,0.8c0.5,0.5,0.8,1.3,0.8,2.2
	c0,0.5-0.1,0.9-0.2,1.3c-0.1,0.4-0.3,0.8-0.6,1.1c-0.2,0.4-0.5,0.7-0.8,1.1l-2.1,3.1h3.3v1.8H303.4z M310.9,365.1v-14.6h6.6v2.2
	h-3.3v3.6h2.5v2.2h-2.5v4.4h3.4v2.2H310.9z M318.3,368.3v-2.1c0.3,0,0.6-0.1,0.8-0.4c0.2-0.3,0.4-0.7,0.5-1.3
	c0.1-0.6,0.2-1.3,0.3-2.1c0-0.9,0.1-1.8,0.1-3c0-1.1,0-2.1-0.1-3c0-0.9-0.1-1.6-0.2-2.2c-0.1-0.6-0.3-1-0.5-1.3
	c-0.2-0.3-0.5-0.5-0.8-0.5v-2.1c0.8,0,1.5,0.1,2,0.5c0.5,0.3,0.9,0.7,1.3,1.3c0.3,0.6,0.6,1.2,0.7,2c0.2,0.8,0.3,1.6,0.3,2.5
	c0,0.9,0.1,1.8,0.1,2.8c0,0.9,0,1.8-0.1,2.7c0,0.9-0.1,1.7-0.3,2.4c-0.2,0.8-0.4,1.4-0.7,2c-0.3,0.6-0.7,1-1.3,1.3
	C319.8,368.1,319.1,368.3,318.3,368.3z"/>
</svg>
